# xmcd
#
# Track frame offsets:
#	150
#	19306
#	39468
#	60949
#	81728
#	103535
#	127001
#	151211
#	176101
#	201566
#
# Disc length: 2975 seconds
#
# Revision: 1
# Processed by: cddbd v1.5.2PL0 Copyright (c) Steve Scherf et al.
# Submitted via: EasyCDDAExtractor 16.0.4.1
#
DISCID=8a0b9d0a
DTITLE=Cẩm Ly, Quốc Đại - Ngọn Trúc Đào
DYEAR=2007
DGENRE=Pop
TTITLE0=Chiều Mưa Qua Sông
TTITLE1=Về Dưới Mái Nhà
TTITLE2=Nhạt Nắng
TTITLE3=Ngọn Trúc Đào
TTITLE4=Trở Về Cat Bụi
TTITLE5=Ai Ra Xứ Huế
TTITLE6=Tình Đầu Tình Cuối
TTITLE7=Không Bao Giờ Quên Anh
TTITLE8=Đôi Ngã Chia Ly
TTITLE9=Vó Ngựa Trên Đồi Cỏ Non
EXTD=
EXTT0=
EXTT1=
EXTT2=
EXTT3=
EXTT4=
EXTT5=
EXTT6=
EXTT7=
EXTT8=
EXTT9=
PLAYORDER=
